# xmcd
#
# Track frame offsets: 
#        150
#        10946
#        22645
#        37514
#        55854
#        72091
#        84853
#        95770
#        106134
#        117575
#        129587
#        140159
#        151592
#        161646
#        172980
#        191622
#        212410
#        230328
#        244400
#        256412
#        270495
#        283956
#        296151
#        307511
#        327736
#
# Disc length: 4582 seconds
#
# Revision: 0
# Processed by: cddbd v1.5.2PL0 Copyright (c) Steve Scherf et al.
# Submitted via: ExactAudioCopy v1.0b3
#
DISCID=5411e419
DTITLE=Various Artist - Romark Records-Kent Harris' Soul Sides
DYEAR=1900
DGENRE=Soul
TTITLE0=Ty Karim - All At Once-1965
TTITLE1=Marcene Harris - Work It Out-1969
TTITLE2=Obie Jessie Seeds Of Freedom - Beautiful Day My Brother (Keep 
TTITLE2=Moving On)-1973
TTITLE3=Ray Agee - It's Hard To Explain-1972
TTITLE4=The Mighty Hannibal - I'll Come Back To You-1964
TTITLE5=Billy Williams - Too Much-1964
TTITLE6=Larry Atkins - Have Mercy On Me-1967
TTITLE7=Donoman - I'm The Only One-1964
TTITLE8=Philips Sisters - Where Did You Stay Last Night-1964
TTITLE9=Romark's Wrecking Crew - South Central Slide-
TTITLE10=Larry Atkins - Ain't That Love Enough-1967
TTITLE11=Faye Ross - Faith, Hope And Trust-1967
TTITLE12=Francettes - I'm Leaving You-1963
TTITLE13=Lon Genes - Dream Girl-1964
TTITLE14=Dimples Harris - Do I Need You-1965
TTITLE15=Deborah Foster - Bye Bye Baby (I'm Leaving You)-19xx
TTITLE16=Marshall McQueen - Any Fool Can Feel It-19xx
TTITLE17=Larry Atkins - Help Me Get This Feeling Back Again-19xx
TTITLE18=Eddie Bridges and His Lowriders - Peekaboo-1964
TTITLE19=Jimmy 'Preacher' Ellis - Tough Competition-1972
TTITLE20=Cry Baby Curtis - There Will Be Some Changes Made-1965
TTITLE21=I'Malley Jones - Pay And Be On My Way-19xx
TTITLE22=Marshall McQueen - If I Can't Stop You-19xx
TTITLE23=Deborah Foster and Marshall McQueen - I Can't Hold Back This Fe
TTITLE23=eling-19xx
TTITLE24=Marcene 'Dimples' Harris - Talking Old Soldiers (a.k.a. "I Kn
TTITLE24=ow How It Feels (To Grow Old"))-1971
EXTD=
EXTT0=
EXTT1=
EXTT2=
EXTT3=
EXTT4=
EXTT5=
EXTT6=
EXTT7=
EXTT8=
EXTT9=
EXTT10=
EXTT11=
EXTT12=
EXTT13=
EXTT14=
EXTT15=
EXTT16=
EXTT17=
EXTT18=
EXTT19=
EXTT20=
EXTT21=
EXTT22=
EXTT23=
EXTT24=
PLAYORDER=
